<?xml version="1.0" encoding="UTF-8" standalone="no"?>
<!DOCTYPE svg PUBLIC "-//W3C//DTD SVG 1.1//EN" "http://www.w3.org/Graphics/SVG/1.1/DTD/svg11.dtd">
<svg width="100%" height="100%" viewBox="0 0 514 154" version="1.1" xmlns="http://www.w3.org/2000/svg" xmlns:xlink="http://www.w3.org/1999/xlink" xml:space="preserve" xmlns:serif="http://www.serif.com/" style="fill-rule:evenodd;clip-rule:evenodd;stroke-linejoin:round;stroke-miterlimit:2;">
    <g transform="matrix(1,0,0,1,-713.611,-2158.94)">
        <g transform="matrix(1,0,0,1,-10640.3,1402.57)">
            <g transform="matrix(0.674982,0,0,0.674982,6720.86,441.151)">
                <g transform="matrix(0.508961,0,0,0.508961,6645.64,280.122)">
                    <path d="M429.047,445.185L507.047,367.185L584.98,367.185C649.922,367.185 702.647,419.91 702.647,484.852L702.647,676.785C702.647,752.286 641.349,813.584 565.847,813.584C490.345,813.584 429.047,752.286 429.047,676.785L429.047,628.738L507.047,568.34L507.047,676.785C507.047,709.237 533.395,735.584 565.847,735.584C598.3,735.584 624.647,709.237 624.647,676.785L624.647,484.852C624.647,462.959 606.873,445.185 584.98,445.185L507.047,445.185L429.047,445.185Z" style="fill:rgb(235,235,235);"/>
                </g>
                <g transform="matrix(1,0,0,1,6468.61,-181.841)">
                    <path d="M628.914,794.324C621.83,794.324 615.726,792.803 610.601,789.762C605.476,786.72 601.539,782.345 598.789,776.637C596.039,770.928 594.664,764.158 594.664,756.324L619.789,756.324C619.872,761.324 620.893,764.97 622.851,767.262C624.81,769.553 627.83,770.699 631.914,770.699L635.664,770.699C639.997,770.699 643.101,769.595 644.976,767.387C646.851,765.178 647.789,761.574 647.789,756.574L647.789,702.574L672.664,702.574L672.664,757.324C672.664,764.741 671.268,771.241 668.476,776.824C665.685,782.408 661.726,786.72 656.601,789.762C651.476,792.803 645.414,794.324 638.414,794.324L628.914,794.324Z" style="fill:rgb(235,235,235);fill-rule:nonzero;"/>
                    <path d="M706.039,702.574L731.289,702.574L767.164,792.449L740.289,792.449L735.039,777.949L702.289,777.949L696.914,792.449L670.039,792.449L706.039,702.574ZM728.664,757.199L718.664,729.699L708.789,757.199L728.664,757.199Z" style="fill:rgb(235,235,235);fill-rule:nonzero;"/>
                    <path d="M771.914,702.574L796.789,702.574L822.664,742.324L830.039,756.199L828.664,731.199L828.664,702.574L853.539,702.574L853.539,792.449L828.664,792.449L802.789,752.574L795.539,738.574L796.789,763.574L796.789,792.449L771.914,792.449L771.914,702.574Z" style="fill:rgb(235,235,235);fill-rule:nonzero;"/>
                    <path d="M866.539,702.574L891.414,702.574L909.414,729.699L916.539,741.699L923.664,729.699L941.789,702.574L966.664,702.574L966.664,792.449L941.789,792.449L941.789,752.574L942.414,741.199L923.039,771.074L910.039,771.074L890.664,741.199L891.414,752.449L891.414,792.449L866.539,792.449L866.539,702.574Z" style="fill:rgb(235,235,235);fill-rule:nonzero;"/>
                    <path d="M1012.54,794.324C1005.62,794.324 999.518,792.783 994.226,789.699C988.935,786.616 984.83,782.283 981.914,776.699C978.997,771.116 977.539,764.658 977.539,757.324L977.539,737.699C977.539,730.366 978.997,723.908 981.914,718.324C984.83,712.741 988.935,708.408 994.226,705.324C999.518,702.241 1005.62,700.699 1012.54,700.699L1025.29,700.699C1032.29,700.699 1038.43,702.22 1043.73,705.262C1049.02,708.303 1053.1,712.72 1055.98,718.512C1058.85,724.303 1060.29,731.199 1060.29,739.199L1035.41,739.199C1035.33,733.533 1034.18,729.533 1031.98,727.199C1029.77,724.866 1026.25,723.699 1021.41,723.699L1016.41,723.699C1011.58,723.699 1008.06,724.949 1005.85,727.449C1003.64,729.949 1002.54,733.991 1002.54,739.574L1002.54,755.449C1002.54,761.033 1003.64,765.053 1005.85,767.512C1008.06,769.97 1011.58,771.199 1016.41,771.199L1021.41,771.199C1026.33,771.199 1029.87,770.012 1032.04,767.637C1034.2,765.262 1035.33,761.283 1035.41,755.699L1060.29,755.699C1060.29,763.616 1058.85,770.47 1055.98,776.262C1053.1,782.053 1049.02,786.512 1043.73,789.637C1038.43,792.762 1032.29,794.324 1025.29,794.324L1012.54,794.324Z" style="fill:rgb(235,235,235);fill-rule:nonzero;"/>
                    <path d="M1070.41,702.574L1095.29,702.574L1095.29,737.324L1105.66,722.699L1122.29,702.574L1153.54,702.574L1119.41,742.199L1156.79,792.449L1125.91,792.449L1102.29,759.324L1095.29,767.324L1095.29,792.449L1070.41,792.449L1070.41,702.574Z" style="fill:rgb(235,235,235);fill-rule:nonzero;"/>
                </g>
                <g transform="matrix(0.252314,0,0,0.252314,6888.01,461.82)">
                    <g transform="matrix(115.597,0,0,115.597,2832.45,792.449)">
                    </g>
                    <text x="780.499px" y="792.449px" style="font-family:'PetrovSans-ExtraBold', 'Petrov Sans';font-weight:800;font-size:115.597px;fill:rgb(235,235,235);">K<tspan x="1037.24px 1292.01px 1540.55px 1790px 2039.46px 2249.27px 2509.59px 2756.97px " y="792.449px 792.449px 792.449px 792.449px 792.449px 792.449px 792.449px 792.449px ">REATIVES</tspan></text>
                </g>
            </g>
        </g>
    </g>
</svg>
